<svg xmlns="http://www.w3.org/2000/svg" width="512" height="512" viewBox="0 0 512 512">
  <g id="connect_illustration" transform="translate(-619 -377)">
    <rect id="Rectangle_1469" data-name="Rectangle 1469" width="512" height="512" transform="translate(619 377)" fill="none"/>
    <g id="Online_connection-bro" data-name="Online connection-bro" transform="translate(618.982 378.001)">
      <g id="freepik--background-simple--inject-73" transform="translate(0.018 -0.001)">
        <path id="Path_6398" data-name="Path 6398" d="M360.323,482.556c39.58-8.709,75.493-30.051,94.8-63.16,31.026-53.187,1.108-78.673,14.4-126.32,7.424-26.594,30.1-38.9,45.3-59.946C579.887,143.088,477.812,2.53,374.008,16.4a98.474,98.474,0,0,0-38.782,13.374C321.773,38.021,309.3,50.454,292.8,51.939c-17.829,1.573-35.824-7.756-51.481-15.048-39.425-18.316-92.934-27.968-135-12.189C74.907,36.4,61.4,64.549,59.538,96.505s11.535,66.717,5.54,97.953c-6.139,31.934-30.56,57.941-38.461,89.864A116.015,116.015,0,0,0,65.633,401.667c38.649,31.68,87.659,22.594,132.048,38.915,25.486,9.374,43.148,30.8,69.974,38.993C297.474,488.706,329.907,489.2,360.323,482.556Z" transform="translate(-23.258 -15.449)" fill="#37b0ae"/>
        <path id="Path_6399" data-name="Path 6399" d="M360.323,482.556c39.58-8.709,75.493-30.051,94.8-63.16,31.026-53.187,1.108-78.673,14.4-126.32,7.424-26.594,30.1-38.9,45.3-59.946C579.887,143.088,477.812,2.53,374.008,16.4a98.474,98.474,0,0,0-38.782,13.374C321.773,38.021,309.3,50.454,292.8,51.939c-17.829,1.573-35.824-7.756-51.481-15.048-39.425-18.316-92.934-27.968-135-12.189C74.907,36.4,61.4,64.549,59.538,96.505s11.535,66.717,5.54,97.953c-6.139,31.934-30.56,57.941-38.461,89.864A116.015,116.015,0,0,0,65.633,401.667c38.649,31.68,87.659,22.594,132.048,38.915,25.486,9.374,43.148,30.8,69.974,38.993C297.474,488.706,329.907,489.2,360.323,482.556Z" transform="translate(-23.258 -15.449)" fill="#fff" opacity="0.7"/>
      </g>
      <g id="freepik--Floor--inject-73" transform="translate(102.782 490.375)">
        <ellipse id="Ellipse_475" data-name="Ellipse 475" cx="152.359" cy="9.973" rx="152.359" ry="9.973" fill="#263238"/>
      </g>
      <g id="freepik--Plants--inject-73" transform="translate(99.375 407.298)">
        <path id="Path_6400" data-name="Path 6400" d="M117.44,405.343c2.127.92,7.324.809,7.324.809s-1.108-3.4-1.208-3.612c-1.108-2.382-4.743-6.316-7.679-5.917a3.5,3.5,0,0,0-2.814,4.432C113.54,403.038,115.623,404.545,117.44,405.343Z" transform="translate(-112.925 -381.559)" fill="#263238"/>
        <path id="Path_6401" data-name="Path 6401" d="M119.172,421.846c2.216.321,6.837-1.019,7.214-1.108a61.886,61.886,0,0,0,2.8,7.756c.643,1.474,1.33,2.948,2.039,4.432-.421-.609-.809-1.108-.875-1.241-1.729-1.995-6.238-4.842-8.964-3.679a3.5,3.5,0,0,0-1.551,4.975c1.008,1.828,3.413,2.737,5.374,3.014s5.95-.776,7-1.108l.82,1.673c1.352,2.682,2.693,5.341,3.945,7.989.432.931.831,1.873,1.241,2.8-.377-.554-.7-1.008-.753-1.108-1.729-1.995-6.249-4.842-8.975-3.69a3.513,3.513,0,0,0-1.551,4.975c1.008,1.839,3.424,2.737,5.374,3.025s5.54-.676,6.815-1.019c.377.964.765,1.939,1.108,2.892.2.665.454,1.274.621,1.95s.366,1.319.554,1.972c.3,1.263.62,2.571.886,3.8.188.864.355,1.7.532,2.526-.432-.942-1.308-2.748-1.4-2.892-1.407-2.216-5.441-5.74-8.3-5.008a3.512,3.512,0,0,0-2.294,4.687c.72,1.961,2.959,3.224,4.853,3.8,2.072.632,6.648,0,7.247,0,.277,1.374.532,2.715.753,3.978.5,2.792.864,5.308,1.108,7.424h1.939c-.343-2.216-.787-4.809-1.363-7.756-.277-1.4-.6-2.881-.942-4.432a37.067,37.067,0,0,0,4.044-1.906c1.518,1.64,5.4,3.568,5.895,3.812-.532,1.3-1.053,2.549-1.573,3.734-1.108,2.471-2.083,4.654-2.992,6.515h2.105c.765-1.717,1.618-3.668,2.5-5.84.543-1.307,1.108-2.726,1.651-4.188.554.111,5.108,1.042,7.236.565,1.917-.443,4.255-1.529,5.108-3.435a3.49,3.49,0,0,0-1.928-4.831c-2.8-.942-7.081,2.216-8.654,4.366-.089.122-.942,1.6-1.463,2.537.222-.6.443-1.175.665-1.8.443-1.219.853-2.449,1.307-3.779.188-.643.388-1.3.587-1.95s.343-1.363.521-2.05c.388-1.607.687-3.247.964-4.909,1.108.388,4.887,1.717,6.87,1.585s4.432-.864,5.54-2.615a3.5,3.5,0,0,0-1.175-5.075c-2.637-1.363-7.346,1.108-9.219,3-.122.122-1.307,1.607-1.95,2.438.155-1,.321-1.995.443-3.014.366-2.936.643-5.917.931-8.865.089-.909.188-1.817.288-2.726.377.144,4.876,1.817,7.092,1.662,1.972-.133,4.432-.853,5.54-2.6a3.5,3.5,0,0,0-1.186-5.075c-2.626-1.363-7.335,1.108-9.208,3-.144.144-1.862,2.283-2.216,2.848.211-1.995.443-3.989.753-5.939a60.24,60.24,0,0,1,1.706-7.756c.166.066,4.864,1.839,7.136,1.684,1.961-.144,4.432-.864,5.54-2.615a3.5,3.5,0,0,0-1.175-5.075c-2.637-1.363-7.346,1.108-9.219,3-.144.144-1.995,2.46-2.294,2.9a1.806,1.806,0,0,1,.122-.465,44.944,44.944,0,0,1,3.092-7.391c.676-1.319,1.385-2.537,2.116-3.712.842.421,4.7,2.294,6.759,2.382s4.5-.366,5.828-1.983a3.5,3.5,0,0,0-.609-5.175c-2.471-1.64-7.435.332-9.5,1.972-.111.089-1.108,1.108-1.906,1.895.343-.521.676-1.108,1.008-1.562,1.241-1.862,2.482-3.5,3.6-4.931.643-.809,1.241-1.529,1.806-2.216,1.03,0,5.219-.144,7.047-1s3.834-2.4,4.266-4.432a3.513,3.513,0,0,0-2.925-4.31c-2.947-.31-6.438,3.723-7.513,6.128-.1.211-1.175,3.646-1.108,3.646h.066c-.565.632-1.108,1.307-1.773,2.072-1.108,1.418-2.449,3.025-3.723,4.864a61.414,61.414,0,0,0-3.856,6.15,44.81,44.81,0,0,0-3.324,7.413v.1c0-.864,0-3.324-.055-3.479-.332-2.626-2.526-7.479-5.441-8.022a3.49,3.49,0,0,0-4.033,3.324c-.177,2.083,1.33,4.166,2.8,5.54,1.662,1.485,6.272,2.914,6.648,3.025a63.623,63.623,0,0,0-1.95,8.045c-.277,1.585-.51,3.18-.731,4.8v-1.518c-.344-2.626-2.537-7.479-5.452-8.022a3.49,3.49,0,0,0-4.033,3.324c-.177,2.083,1.341,4.166,2.8,5.485s5.4,2.637,6.438,2.97l-.233,1.85c-.355,2.97-.7,5.928-1.108,8.865-.144,1.019-.332,2.017-.51,3.025v-1.319c-.332-2.615-2.526-7.479-5.441-8.022a3.513,3.513,0,0,0-4.033,3.324c-.177,2.072,1.33,4.166,2.8,5.474s5.02,2.515,6.249,2.914c-.211,1.019-.432,2.039-.687,3.014-.188.665-.321,1.319-.554,1.972s-.421,1.308-.62,1.95c-.443,1.219-.9,2.482-1.363,3.668-.31.82-.632,1.6-.953,2.382.166-1.008.432-3,.443-3.18a13.651,13.651,0,0,0-1.828-6.648,4.488,4.488,0,0,0,0-.776,3.5,3.5,0,0,0-4.288-2.97c-2.859.753-4.665,5.773-4.8,8.41,0,.155.089,1.862.166,2.925-.144-.621-.277-1.219-.432-1.862-.3-1.263-.632-2.515-.986-3.867l-.6-1.961c-.177-.654-.454-1.33-.687-1.995-.565-1.551-1.219-3.092-1.906-4.621,1.108-.266,5.031-1.263,6.648-2.471s3.147-3.369,3.147-5.43a3.5,3.5,0,0,0-3.779-3.59c-2.936.321-5.54,5.008-6.028,7.59,0,.166-.211,2.061-.277,3.114-.421-.92-.842-1.839-1.3-2.759-1.319-2.648-2.726-5.285-4.122-7.923-.432-.809-.853-1.629-1.274-2.438.4-.089,5.075-1.175,6.837-2.526,1.573-1.2,3.236-3.158,3.213-5.252a3.5,3.5,0,0,0-3.779-3.579c-2.936.31-5.54,5-6.028,7.59,0,.188-.288,2.925-.321,3.623-.92-1.784-1.828-3.568-2.648-5.363a62.6,62.6,0,0,1-2.892-7.457c.188,0,5.075-1.108,6.881-2.538,1.562-1.208,3.224-3.169,3.213-5.252a3.513,3.513,0,0,0-3.79-3.59c-2.936.321-5.54,5.008-6.017,7.59,0,.211-.31,3.147-.321,3.679a1.93,1.93,0,0,0-.155-.443,44.99,44.99,0,0,1-1.5-7.867c-.166-1.474-.244-2.881-.277-4.266.931-.111,5.186-.676,6.948-1.74s3.546-2.792,3.767-4.875a3.5,3.5,0,0,0-3.324-3.978c-2.959,0-6.006,4.377-6.826,6.881,0,.144-.344,1.585-.543,2.637V405.07c0-2.216.144-4.288.277-6.105.089-1.031.188-1.961.3-2.826.853-.587,4.277-3,5.33-4.731s1.862-4.111,1.108-6.061a3.5,3.5,0,0,0-4.82-1.972c-2.626,1.352-3.324,6.648-2.881,9.252a32.59,32.59,0,0,0,1.108,3.646h0c-.111.831-.222,1.729-.332,2.715-.177,1.806-.366,3.856-.421,6.105a62.7,62.7,0,0,0,.177,7.258,46.041,46.041,0,0,0,1.341,8v.1c-.465-.731-1.839-2.737-1.961-2.881-1.729-1.995-6.238-4.842-8.964-3.679a3.5,3.5,0,0,0-1.551,4.975C114.818,420.672,117.222,421.558,119.172,421.846Z" transform="translate(-112.873 -383.025)" fill="#263238"/>
        <path id="Path_6402" data-name="Path 6402" d="M165.1,406.8s.942-3.457.975-3.679c.366-2.615-.465-7.889-3.136-9.175a3.5,3.5,0,0,0-4.765,2.105c-.709,1.961.188,4.377,1.263,6.028C160.7,404.011,165.1,406.793,165.1,406.8Z" transform="translate(-108.063 -381.878)" fill="#263238"/>
        <path id="Path_6403" data-name="Path 6403" d="M350.09,413.369c1.85.809,6.349.7,6.349.7s-.964-2.947-1.053-3.125c-.986-2.061-4.111-5.474-6.648-5.13a3.025,3.025,0,0,0-2.438,3.8C346.722,411.375,348.528,412.671,350.09,413.369Z" transform="translate(-87.717 -380.565)" fill="#263238"/>
        <path id="Path_6404" data-name="Path 6404" d="M351.606,427.672c1.906.277,5.928-.886,6.238-.986a55.412,55.412,0,0,0,2.438,6.748c.554,1.285,1.108,2.549,1.773,3.823-.377-.543-.7-1.019-.753-1.108-1.507-1.74-5.419-4.2-7.756-3.2a3.036,3.036,0,0,0-1.341,4.31c.864,1.6,2.959,2.382,4.654,2.626s5.164-.676,6.072-.931l.72,1.452c1.108,2.316,2.327,4.621,3.413,6.925.377.809.72,1.618,1.108,2.427l-.654-.931c-1.507-1.729-5.418-4.2-7.756-3.2a3.036,3.036,0,0,0-1.341,4.321c.864,1.585,2.959,2.371,4.654,2.615s4.82-.587,5.906-.886c.332.842.665,1.684.942,2.515.188.565.4,1.108.554,1.684s.31,1.108.477,1.706c.255,1.108.532,2.216.765,3.324.166.753.31,1.463.454,2.216-.366-.809-1.108-2.382-1.2-2.5-1.219-1.939-4.72-4.964-7.2-4.333a3.025,3.025,0,0,0-1.983,4.056c.621,1.706,2.56,2.792,4.2,3.324,1.806.554,5.8.055,6.294,0,.233,1.186.454,2.349.643,3.446.432,2.427.753,4.6,1,6.438h1.684c-.3-1.895-.676-4.166-1.186-6.715-.233-1.208-.51-2.5-.809-3.823a33.991,33.991,0,0,0,3.5-1.651,22.327,22.327,0,0,0,5.119,3.324c-.465,1.108-.92,2.216-1.363,3.236-.931,2.139-1.817,4.044-2.593,5.651h1.817c.665-1.485,1.407-3.18,2.216-5.064.477-1.108.953-2.371,1.429-3.634.488.1,4.432.909,6.272.488,1.673-.377,3.69-1.319,4.432-2.97a3.047,3.047,0,0,0-1.684-4.2c-2.427-.809-6.139,1.95-7.5,3.79-.078.111-.82,1.385-1.274,2.216.2-.521.388-1.019.587-1.562.388-1.053.742-2.116,1.108-3.269.166-.565.332-1.108.51-1.7s.3-1.186.454-1.784c.332-1.385.6-2.8.831-4.244.931.332,4.244,1.485,5.95,1.363s3.856-.742,4.842-2.216a3.036,3.036,0,0,0-1.019-4.432c-2.283-1.175-6.371.986-7.989,2.6-.111.1-1.108,1.4-1.7,2.116.133-.875.277-1.74.388-2.615.31-2.549.554-5.13.809-7.756.078-.787.155-1.574.244-2.36.332.122,4.233,1.585,6.15,1.44,1.706-.111,3.845-.742,4.842-2.216a3.036,3.036,0,0,0-1.031-4.432c-2.216-1.175-6.36.986-7.989,2.6-.122.122-1.607,1.983-1.961,2.471.188-1.729.388-3.457.654-5.141a52.517,52.517,0,0,1,1.474-6.781c.155.055,4.222,1.6,6.183,1.452,1.706-.111,3.856-.742,4.842-2.216a3.036,3.036,0,0,0-1.019-4.432c-2.283-1.175-6.371.986-7.989,2.6-.133.133-1.729,2.128-1.995,2.515a1.755,1.755,0,0,1,.1-.4,39.415,39.415,0,0,1,2.693-6.4c.576-1.108,1.2-2.216,1.828-3.225.731.366,4.078,1.995,5.862,2.061s3.9-.31,5.053-1.718a3.047,3.047,0,0,0-.532-4.488c-2.139-1.418-6.438.288-8.233,1.717-.089.078-1,.975-1.64,1.64.288-.454.576-.931.864-1.352,1.108-1.618,2.216-3.036,3.125-4.277.554-.709,1.108-1.33,1.562-1.906.9,0,4.532-.133,6.116-.875s3.324-2.083,3.7-3.856a3.047,3.047,0,0,0-2.549-3.734c-2.549-.277-5.54,3.213-6.5,5.308-.089.188-1.019,3.158-.975,3.158h.055c-.476.543-1,1.108-1.54,1.8-1,1.23-2.105,2.626-3.224,4.222a53.365,53.365,0,0,0-3.324,5.33,40.23,40.23,0,0,0-2.859,6.438.278.278,0,0,1,0,.078v-3.014c-.3-2.216-2.216-6.493-4.731-6.959a3.036,3.036,0,0,0-3.49,2.859c-.155,1.806,1.108,3.612,2.427,4.754,1.44,1.285,5.441,2.526,5.762,2.626a53.336,53.336,0,0,0-1.7,6.97c-.244,1.374-.443,2.759-.632,4.155v-1.308c-.3-2.272-2.216-6.493-4.72-6.959a3.036,3.036,0,0,0-3.5,2.859c-.155,1.806,1.164,3.612,2.438,4.743s4.676,2.294,5.54,2.582l-.2,1.607c-.31,2.571-.609,5.141-.975,7.657-.122.886-.288,1.751-.443,2.615V449.8c-.288-2.216-2.216-6.493-4.72-6.959a3.036,3.036,0,0,0-3.5,2.859c-.144,1.806,1.164,3.612,2.438,4.743a19.323,19.323,0,0,0,5.418,2.526c-.188.886-.377,1.773-.6,2.615-.155.576-.277,1.108-.477,1.717s-.366,1.108-.543,1.684c-.388,1.053-.776,2.15-1.175,3.18-.277.709-.554,1.385-.831,2.072.144-.886.377-2.615.388-2.759a11.78,11.78,0,0,0-1.585-5.729,4.543,4.543,0,0,0,0-.676,3.036,3.036,0,0,0-3.712-2.571c-2.482.654-4.055,5.008-4.166,7.291,0,.133.078,1.607.155,2.538-.133-.543-.244-1.108-.377-1.618q-.4-1.662-.864-3.324c-.166-.554-.344-1.108-.51-1.7s-.4-1.108-.6-1.729c-.5-1.341-1.053-2.682-1.651-4.011.964-.222,4.355-1.108,5.718-2.139s2.792-2.748,2.781-4.554a3.036,3.036,0,0,0-3.324-3.114c-2.549.277-4.765,4.344-5.219,6.582,0,.144-.188,1.8-.244,2.693-.366-.787-.731-1.6-1.108-2.382-1.108-2.294-2.371-4.587-3.579-6.87-.377-.709-.731-1.407-1.108-2.105.332-.089,4.432-1.019,5.928-2.216,1.352-1.042,2.792-2.748,2.781-4.554a3.036,3.036,0,0,0-3.324-3.114c-2.549.277-4.765,4.344-5.23,6.582,0,.166-.244,2.537-.266,3.147-.809-1.551-1.6-3.091-2.3-4.654a53.459,53.459,0,0,1-2.5-6.46c.155,0,4.432-1.008,5.961-2.216,1.363-1.042,2.792-2.748,2.781-4.554a3.036,3.036,0,0,0-3.324-3.114c-2.549.277-4.765,4.344-5.219,6.582,0,.177-.266,2.737-.277,3.191,0-.122-.1-.255-.133-.377a39.235,39.235,0,0,1-1.3-6.826c-.144-1.274-.21-2.5-.244-3.7.809-.1,4.5-.587,6.017-1.507s3.091-2.427,3.269-4.233a3.025,3.025,0,0,0-2.914-3.446c-2.571,0-5.208,3.79-5.917,5.973,0,.122-.3,1.363-.465,2.272v-1.607c0-1.939.133-3.712.255-5.285.066-.9.155-1.706.244-2.46.742-.51,3.712-2.6,4.621-4.1s1.629-3.568.964-5.252a3.047,3.047,0,0,0-4.188-1.717c-2.271,1.175-2.87,5.762-2.493,8.022,0,.2.886,3.191.931,3.169h0c-.1.72-.2,1.5-.288,2.349-.155,1.573-.321,3.324-.366,5.3a53.188,53.188,0,0,0,.144,6.294,38.926,38.926,0,0,0,1.174,6.948.275.275,0,0,0,0,.078c-.41-.632-1.6-2.371-1.7-2.493-1.507-1.729-5.418-4.2-7.756-3.2a3.047,3.047,0,0,0-1.341,4.321C347.816,426.642,349.91,427.429,351.606,427.672Z" transform="translate(-87.67 -381.826)" fill="#263238"/>
        <path id="Path_6405" data-name="Path 6405" d="M391.427,414.632s.809-2.992.842-3.18c.31-2.216-.41-6.848-2.715-7.956a3.036,3.036,0,0,0-4.133,1.828c-.621,1.7.166,3.79,1.108,5.219C387.6,412.239,391.416,414.632,391.427,414.632Z" transform="translate(-83.501 -380.842)" fill="#263238"/>
        <path id="Path_6406" data-name="Path 6406" d="M304.469,423.352a15.912,15.912,0,0,0,4.643.51s-.709-2.161-.765-2.283c-.72-1.518-3.014-4.011-4.875-3.767a2.216,2.216,0,0,0-1.784,2.792,4.7,4.7,0,0,0,2.781,2.748Z" transform="translate(-92.535 -379.268)" fill="#263238"/>
        <path id="Path_6407" data-name="Path 6407" d="M305.585,433.822a15.6,15.6,0,0,0,4.565-.72,39.506,39.506,0,0,0,1.784,4.942q.62,1.4,1.3,2.792c-.266-.4-.51-.742-.554-.787-1.108-1.274-3.956-3.08-5.684-2.338a2.216,2.216,0,0,0-.986,3.147,4.609,4.609,0,0,0,3.4,1.917,14.535,14.535,0,0,0,4.432-.676l.532,1.108c.853,1.7,1.706,3.324,2.493,5.064.277.587.532,1.186.787,1.784-.233-.355-.443-.643-.476-.687-1.108-1.263-3.967-3.069-5.684-2.338a2.216,2.216,0,0,0-.986,3.158,4.643,4.643,0,0,0,3.4,1.917,14,14,0,0,0,4.321-.654c.244.62.488,1.23.7,1.839.133.421.288.809.4,1.241s.233.831.343,1.252c.2.8.4,1.629.565,2.416.122.543.233,1.108.332,1.6-.266-.6-.82-1.751-.875-1.839-.9-1.418-3.457-3.634-5.274-3.169a2.216,2.216,0,0,0-1.452,2.97,4.654,4.654,0,0,0,3.08,2.4,15.158,15.158,0,0,0,4.6,0c.177.875.344,1.729.476,2.526.31,1.773.554,3.324.731,4.72h1.219c-.211-1.4-.5-3.058-.864-4.92-.177-.886-.377-1.828-.6-2.8a23.877,23.877,0,0,0,2.571-1.208,16.264,16.264,0,0,0,3.734,2.416c-.332.82-.665,1.629-.986,2.371-.687,1.562-1.33,2.959-1.906,4.144h1.374c.5-1.108,1.031-2.338,1.6-3.712.343-.831.7-1.729,1.042-2.659a15.012,15.012,0,0,0,4.6.355,4.665,4.665,0,0,0,3.247-2.216,2.216,2.216,0,0,0-1.23-3.069c-1.784-.6-4.5,1.418-5.54,2.77-.055.078-.6,1.008-.931,1.607.144-.377.288-.742.432-1.108.277-.765.543-1.551.82-2.393.122-.41.255-.82.377-1.241s.222-.864.332-1.3c.244-1.019.443-2.061.609-3.114a14.77,14.77,0,0,0,4.355,1,4.632,4.632,0,0,0,3.546-1.652,2.216,2.216,0,0,0-.754-3.224c-1.662-.853-4.654.731-5.84,1.906-.078.078-.831,1.019-1.241,1.551.1-.632.2-1.263.277-1.917.233-1.862.41-3.745.6-5.629.055-.587.111-1.163.177-1.729a15.511,15.511,0,0,0,4.5,1.053,4.687,4.687,0,0,0,3.546-1.662,2.216,2.216,0,0,0-.754-3.213c-1.662-.864-4.654.72-5.84,1.906-.1.089-1.186,1.452-1.44,1.806.133-1.263.277-2.526.476-3.767a39.427,39.427,0,0,1,1.108-4.964,15.605,15.605,0,0,0,4.532,1.108,4.643,4.643,0,0,0,3.535-1.662,2.216,2.216,0,0,0-.742-3.224c-1.673-.853-4.665.731-5.851,1.917-.089.089-1.263,1.551-1.452,1.828a.423.423,0,0,1,.078-.288,27.911,27.911,0,0,1,1.961-4.687c.421-.831.875-1.607,1.341-2.349a15.014,15.014,0,0,0,4.288,1.507,4.687,4.687,0,0,0,3.7-1.263,2.216,2.216,0,0,0-.388-3.324c-1.574-1.042-4.72.211-6.028,1.252-.066.055-.731.709-1.208,1.2.211-.332.432-.676.643-.986.787-1.186,1.573-2.216,2.283-3.136l1.108-1.4a14.86,14.86,0,0,0,4.432-.632,4.609,4.609,0,0,0,2.7-2.826,2.216,2.216,0,0,0-1.85-2.737c-1.873-.2-4.089,2.36-4.776,3.889,0,.133-.742,2.316-.7,2.316h0c-.355.41-.731.842-1.108,1.319-.72.9-1.54,1.917-2.36,3.092a42.552,42.552,0,0,0-2.449,3.9,29.494,29.494,0,0,0-2.006,4.643v-2.161c-.222-1.662-1.618-4.743-3.457-5.086a2.216,2.216,0,0,0-2.571,2.083,4.665,4.665,0,0,0,1.784,3.479,15.655,15.655,0,0,0,4.211,1.928,38.884,38.884,0,0,0-1.23,5.1c-.177,1.008-.332,2.017-.465,3.047v-.964c-.222-1.662-1.618-4.754-3.457-5.086a2.216,2.216,0,0,0-2.571,2.094,4.61,4.61,0,0,0,1.784,3.479,14.836,14.836,0,0,0,4.078,1.884,10.621,10.621,0,0,1-.144,1.175c-.233,1.884-.443,3.767-.72,5.607-.089.643-.211,1.285-.321,1.917v-.831c-.211-1.662-1.607-4.754-3.457-5.1a2.216,2.216,0,0,0-2.56,2.094,4.654,4.654,0,0,0,1.784,3.479,14.163,14.163,0,0,0,3.967,1.839c-.144.654-.277,1.3-.443,1.917-.111.421-.2.842-.343,1.252l-.4,1.241c-.288.776-.565,1.573-.864,2.327-.2.521-.4,1.008-.6,1.507.1-.643.266-1.906.277-2.017a8.676,8.676,0,0,0-1.108-4.189,1.9,1.9,0,0,0,0-.5,2.216,2.216,0,0,0-2.715-1.884c-1.806.488-2.959,3.668-3.047,5.341,0,.1.055,1.174.111,1.862-.089-.4-.177-.787-.277-1.186-.188-.8-.4-1.6-.632-2.46-.122-.4-.244-.82-.377-1.241s-.288-.842-.432-1.263c-.355-.986-.776-1.961-1.208-2.936a14.592,14.592,0,0,0,4.188-1.562,4.7,4.7,0,0,0,2.039-3.324,2.216,2.216,0,0,0-2.4-2.271c-1.862.2-3.49,3.169-3.823,4.809,0,.111-.133,1.308-.177,1.972-.266-.576-.532-1.163-.82-1.751-.831-1.673-1.729-3.324-2.615-5.02l-.809-1.54a15.731,15.731,0,0,0,4.333-1.607,4.643,4.643,0,0,0,2.039-3.324,2.216,2.216,0,0,0-2.393-2.271c-1.873.2-3.49,3.169-3.823,4.809,0,.133-.188,1.862-.2,2.3-.587-1.108-1.163-2.216-1.684-3.4a37.834,37.834,0,0,1-1.839-4.731,15.635,15.635,0,0,0,4.366-1.618,4.61,4.61,0,0,0,2.039-3.324,2.216,2.216,0,0,0-2.4-2.283c-1.862.211-3.479,3.18-3.823,4.82,0,.133-.188,1.995-.2,2.338a2.974,2.974,0,0,0-.1-.288,28.638,28.638,0,0,1-.942-5c-.111-.931-.155-1.828-.188-2.693a15.114,15.114,0,0,0,4.432-1.108,4.643,4.643,0,0,0,2.393-3.092,2.216,2.216,0,0,0-2.139-2.526c-1.873,0-3.812,2.77-4.321,4.366,0,.089-.222,1-.344,1.673v-1.186c0-1.418.089-2.715.177-3.867.055-.654.122-1.252.188-1.8a14.846,14.846,0,0,0,3.2-2.992,4.643,4.643,0,0,0,.7-3.845,2.216,2.216,0,0,0-3.058-1.263c-1.662.864-2.105,4.222-1.828,5.873,0,.144.654,2.338.687,2.316h0c-.066.532-.144,1.108-.211,1.729-.111,1.108-.233,2.449-.266,3.878a41,41,0,0,0,.111,4.6,29.553,29.553,0,0,0,.853,5.086s0,0,0,.055c-.3-.465-1.163-1.74-1.241-1.828-1.108-1.263-3.967-3.069-5.7-2.338a2.216,2.216,0,0,0-.986,3.158,4.643,4.643,0,0,0,3.424,1.884Z" transform="translate(-92.509 -380.198)" fill="#263238"/>
        <path id="Path_6408" data-name="Path 6408" d="M334.71,424.274s.6-2.216.62-2.338c.233-1.651-.3-5-1.995-5.817a2.216,2.216,0,0,0-3.014,1.341,4.654,4.654,0,0,0,.8,3.823,16.013,16.013,0,0,0,3.59,2.992Z" transform="translate(-89.445 -379.47)" fill="#263238"/>
      </g>
      <g id="freepik--Magnifiers--inject-73" transform="translate(58.836 50.888)">
        <path id="Path_6409" data-name="Path 6409" d="M389.464,75.076A18.117,18.117,0,0,0,418.03,93.913l7.014,6.715a4.332,4.332,0,0,0,1.175,4.133l15.236,14.926a4.337,4.337,0,1,0,6.039-6.227L432.224,98.523A4.344,4.344,0,0,0,428,97.481l-6.859-6.6a17.818,17.818,0,0,0,3.479-6.937,18.13,18.13,0,0,0-35.159-8.865Zm32.012,8.045a14.881,14.881,0,1,1-10.793-18.061,14.881,14.881,0,0,1,10.793,18.061Z" transform="translate(-42.561 -61.375)" fill="none" stroke="#263238" stroke-width="2"/>
        <path id="Path_6410" data-name="Path 6410" d="M88.152,271.948a13.618,13.618,0,0,0-2.593,25.585l-2.039,7.014a3.247,3.247,0,0,0-2.349,2.216l-4.709,15.369a3.275,3.275,0,1,0,6.283,1.851l4.676-15.369a3.225,3.225,0,0,0-.776-3.18l2.017-6.892a13.629,13.629,0,1,0-.465-26.594Zm5.74,24.156a9.279,9.279,0,1,1,.044,0Z" transform="translate(-76.339 -38.66)" fill="none" stroke="#263238" stroke-width="2"/>
      </g>
      <g id="freepik--Messages--inject-73" transform="translate(67.646 21.12)">
        <path id="Path_6411" data-name="Path 6411" d="M424.3,179.75H392.167a7.867,7.867,0,0,0-7.867,7.867V205.4a7.867,7.867,0,0,0,7.867,7.867H414.55l-1.108,11.081,10.416-11.081h.443a7.867,7.867,0,0,0,7.867-7.867V187.617a7.867,7.867,0,0,0-7.867-7.867Z" transform="translate(-51.869 -18.814)" fill="none" stroke="#263238" stroke-width="2"/>
        <path id="Path_6412" data-name="Path 6412" d="M89.62,217.75h21.774a5.33,5.33,0,0,1,5.33,5.33v12.045a5.33,5.33,0,0,1-5.33,5.33H96.235l.787,7.491-7.1-7.491h-.3a5.33,5.33,0,0,1-5.33-5.33V223.08A5.33,5.33,0,0,1,89.62,217.75Z" transform="translate(-84.29 -14.708)" fill="none" stroke="#263238" stroke-width="2"/>
        <path id="Path_6413" data-name="Path 6413" d="M234.87,34.51h21.773a5.33,5.33,0,0,1,5.33,5.33V51.884a5.33,5.33,0,0,1-5.33,5.33H241.485l.787,7.491-7.1-7.491h-.3a5.33,5.33,0,0,1-5.33-5.33V39.84A5.33,5.33,0,0,1,234.87,34.51Z" transform="translate(-68.593 -34.51)" fill="none" stroke="#263238" stroke-width="2"/>
      </g>
      <g id="freepik--Connections--inject-73" transform="translate(61.003 28.8)">
        <path id="Path_6414" data-name="Path 6414" d="M184.41,41.14l53.276,148.88L352.094,43.489" transform="translate(-41.076 -24.354)" fill="none" stroke="#263238" stroke-width="2"/>
        <path id="Path_6415" data-name="Path 6415" d="M392.34,128.83,232.49,180.543,339.84,301.212" transform="translate(-35.881 -14.877)" fill="none" stroke="#263238" stroke-width="2"/>
        <path id="Path_6416" data-name="Path 6416" d="M125.826,294.222l123.018-115.97L81.16,150.04" transform="translate(-52.234 -12.585)" fill="none" stroke="#263238" stroke-width="2"/>
        <circle id="Ellipse_476" data-name="Ellipse 476" cx="16.2" cy="16.2" r="16.2" transform="translate(333.921 121.259) rotate(-62.37)" fill="#263238" stroke="#263238" stroke-width="0.5"/>
        <path id="Path_6417" data-name="Path 6417" d="M405.614,143.69h-10.56a3.734,3.734,0,0,0-3.734,3.734v8.865a14.5,14.5,0,0,0,18.028-.144v-8.72a3.734,3.734,0,0,0-3.734-3.734Z" transform="translate(-44.468 -30.391)" fill="#37b0ae" stroke="#263238" stroke-width="1"/>
        <path id="Path_6418" data-name="Path 6418" d="M399.814,143.268a5.374,5.374,0,1,0-5.374-5.374,5.374,5.374,0,0,0,5.374,5.374Z" transform="translate(-44.13 -31.598)" fill="#37b0ae" stroke="#263238" stroke-width="1"/>
        <circle id="Ellipse_477" data-name="Ellipse 477" cx="16.2" cy="16.2" r="16.2" transform="matrix(0.386, -0.922, 0.922, 0.386, 284.407, 289.271)" fill="#263238" stroke="#263238" stroke-width="0.5"/>
        <path id="Path_6419" data-name="Path 6419" d="M360.394,293.69h-10.56a3.723,3.723,0,0,0-3.734,3.723v8.865a14.5,14.5,0,0,0,18.028-.144v-8.72a3.723,3.723,0,0,0-3.734-3.723Z" transform="translate(-49.354 -14.181)" fill="#37b0ae" stroke="#263238" stroke-width="1"/>
        <path id="Path_6420" data-name="Path 6420" d="M354.524,293.258a5.374,5.374,0,1,0-5.374-5.374A5.374,5.374,0,0,0,354.524,293.258Z" transform="translate(-49.025 -15.389)" fill="#37b0ae" stroke="#263238" stroke-width="1"/>
        <circle id="Ellipse_478" data-name="Ellipse 478" cx="11.502" cy="11.502" r="11.502" transform="translate(131.134 4.243)" fill="#263238" stroke="#263238" stroke-width="0.5"/>
        <path id="Path_6421" data-name="Path 6421" d="M211.449,55h-7.491a2.648,2.648,0,0,0-2.648,2.648v6.216a10.316,10.316,0,0,0,12.787-.1V57.593A2.648,2.648,0,0,0,211.449,55Z" transform="translate(-65.001 -39.976)" fill="#37b0ae" stroke="#263238" stroke-width="1"/>
        <path id="Path_6422" data-name="Path 6422" d="M207.372,54.644a3.812,3.812,0,1,0-3.812-3.812A3.812,3.812,0,0,0,207.372,54.644Z" transform="translate(-64.758 -40.838)" fill="#37b0ae" stroke="#263238" stroke-width="1"/>
        <circle id="Ellipse_479" data-name="Ellipse 479" cx="11.502" cy="11.502" r="11.502" transform="translate(56.782 285.942) rotate(-67.35)" fill="#263238" stroke="#263238" stroke-width="0.5"/>
        <path id="Path_6423" data-name="Path 6423" d="M147.55,293.21h-7.491a2.648,2.648,0,0,0-2.659,2.659v6.283a10.283,10.283,0,0,0,12.8-.1v-6.183a2.648,2.648,0,0,0-2.648-2.659Z" transform="translate(-71.908 -14.233)" fill="#37b0ae" stroke="#263238" stroke-width="1"/>
        <path id="Path_6424" data-name="Path 6424" d="M143.432,292.9a3.812,3.812,0,1,0-3.812-3.812A3.812,3.812,0,0,0,143.432,292.9Z" transform="translate(-71.668 -15.09)" fill="#37b0ae" stroke="#263238" stroke-width="1"/>
        <circle id="Ellipse_480" data-name="Ellipse 480" cx="11.502" cy="11.502" r="11.502" transform="matrix(0.364, -0.931, 0.931, 0.364, 295.901, 21.423)" fill="#263238" stroke="#263238" stroke-width="0.5"/>
        <path id="Path_6425" data-name="Path 6425" d="M363.24,54.19h-7.5a2.648,2.648,0,0,0-2.648,2.648v6.294a10.327,10.327,0,0,0,12.8-.1V56.838A2.648,2.648,0,0,0,363.24,54.19Z" transform="translate(-48.599 -40.063)" fill="#37b0ae" stroke="#263238" stroke-width="1"/>
        <path id="Path_6426" data-name="Path 6426" d="M359.122,53.884a3.812,3.812,0,1,0-3.812-3.812,3.812,3.812,0,0,0,3.812,3.812Z" transform="translate(-48.359 -40.92)" fill="#37b0ae" stroke="#263238" stroke-width="1"/>
        <circle id="Ellipse_481" data-name="Ellipse 481" cx="20.998" cy="20.998" r="20.998" transform="translate(0 145.887) rotate(-67.12)" fill="#263238" stroke="#263238" stroke-width="0.5"/>
        <path id="Path_6427" data-name="Path 6427" d="M111.217,161.73H97.532a4.842,4.842,0,0,0-4.842,4.831v11.48a18.837,18.837,0,0,0,23.358-.177v-11.3a4.831,4.831,0,0,0-4.831-4.831Z" transform="translate(-76.74 -28.442)" fill="#37b0ae" stroke="#263238" stroke-width="1"/>
        <path id="Path_6428" data-name="Path 6428" d="M103.679,161.167a6.959,6.959,0,1,0-6.959-6.959,6.959,6.959,0,0,0,6.959,6.959Z" transform="translate(-76.304 -30.006)" fill="#37b0ae" stroke="#263238" stroke-width="1"/>
      </g>
      <g id="freepik--Clouds--inject-73" transform="translate(85.508 34.696)">
        <path id="Path_6429" data-name="Path 6429" d="M171.725,91.1v-.2a15.114,15.114,0,0,0-10.25-12.7,14.46,14.46,0,0,0-8.621-.211,17.466,17.466,0,1,0-34.206-5.618h-.765A17.474,17.474,0,0,0,100.41,89.851a17.242,17.242,0,0,0,.621,4.632,9.685,9.685,0,0,0,9.363,6.992h51.614A9.7,9.7,0,0,0,171.725,91.1Z" transform="translate(-100.41 -45.808)" fill="none" stroke="#263238" stroke-width="2"/>
        <path id="Path_6430" data-name="Path 6430" d="M407.756,249.605a.419.419,0,0,1,0-.111,8.167,8.167,0,0,0-5.54-6.87,7.757,7.757,0,0,0-4.654-.111,9.466,9.466,0,1,0-18.483-3.036h-.41a9.441,9.441,0,0,0-9.43,9.441,9.744,9.744,0,0,0,.332,2.493,5.23,5.23,0,0,0,5.053,3.79h27.857a5.23,5.23,0,0,0,5.274-5.6Z" transform="translate(-71.358 -26.942)" fill="none" stroke="#263238" stroke-width="2"/>
        <path id="Path_6431" data-name="Path 6431" d="M186.655,326.64v-.1a8.155,8.155,0,0,0-5.54-6.87,7.757,7.757,0,0,0-4.654-.111,9.4,9.4,0,0,0,.344-3.546,9.529,9.529,0,0,0-9.164-8.543,9.419,9.419,0,0,0-9.64,9.053h-.41a9.43,9.43,0,0,0-9.441,9.441,9.274,9.274,0,0,0,.343,2.493,5.208,5.208,0,0,0,5.053,3.79h27.846a5.23,5.23,0,0,0,5.263-5.607Z" transform="translate(-95.251 -18.588)" fill="none" stroke="#263238" stroke-width="2"/>
        <path id="Path_6432" data-name="Path 6432" d="M329.757,66.184a.309.309,0,0,0,0-.1,8.133,8.133,0,0,0-5.54-6.87,7.756,7.756,0,0,0-4.654-.122,9.12,9.12,0,0,0,.344-3.535,9.43,9.43,0,0,0-18.837.51h-.41A9.452,9.452,0,0,0,291.562,68a5.23,5.23,0,0,0,5.053,3.79h27.857a5.219,5.219,0,0,0,5.286-5.607Z" transform="translate(-79.789 -46.762)" fill="none" stroke="#263238" stroke-width="2"/>
      </g>
      <g id="freepik--earth-globe--inject-73" transform="translate(86.572 21.146)">
        <circle id="Ellipse_482" data-name="Ellipse 482" cx="120.414" cy="120.414" r="120.414" transform="translate(0 170.291) rotate(-45)" fill="#fff" stroke="#263238" stroke-width="2"/>
        <path id="Path_6433" data-name="Path 6433" d="M257.544,144.219l11.435,5.141,3.136,5.141,5.152,2.006.565,5.43-1.995,3.136-4,.864-8.576-3.435v-1.108l4.853-2.006-1.706-5.995-7.756-2.859-3.424-4.576Zm72.024,132.026-9.142-3.712-11.147-4h-8.865l-8.288-1.717-9.153,1.995-5.141.288H274.7l-6.006,3.435-5.762,2.283-7.756-4.853,1.995-8.011-4.853-1.995H246.6l-.853-2.571.565-5.153-1.995-2.848-4,.565-1.108,2.859-4.853.288-4.288-5.141-1.717-6.859,4.288-8.011,8.288.576,2.294,2.006h3.424l4.288-2.582,3.712,1.108,5.141,8.865,2.006-.288-.576-6.571-1.607-3.391.565-5.429,10.571-4.576,1.429-10.571,4.576-3.723,3.712-6.571,2.859-.565,6.571-4.288.288-2.283-4.565.277-.864-2.283h-3.136l-4.864,1.108,2.283-3.712L289,187.334l2.283-2.571,4,6.283,2.582,2.571,4-1.108-1.717-3.712-6.006-4.288-6.859-7.756-7.136-4.864-6.859-1.108-3.435-3.424-4.576-1.108-.565,1.108-.576,8.288,1.108,2.848-2.571,9.153-5.7-4.543.853-4-5.984-2.881-2.593-3.091,1.429-7.136,8.288-6.006.576-6.859-3.147.288-2.006-2.571-.853-4.288-2.006-.288-1.108,4.576-3.136.565-1.429-9.973-2.327-1.551-4-1.718-4.565,2.283,5.707,5.43,1.108,4.864-10.294-7.756-7.147-7.756-.565-7.756-7.391-2.127-5.718,3.723a46.447,46.447,0,0,1-4.255,2.283,47.085,47.085,0,0,1-6.859,1.108l-1.108,4.864-6.571.277.576,3.147,10.571,1.717,5.43,5.995v9.973L205.31,167.3l.576,9.43-8,13.995-1.718,20.865,2.493,12.067,3.712,9.153,4.288.565-1.429-4.565-2.283-3.435-1.429-6.283,2.571-.576,4,10.294,2.859,9.142v7.424l5.43,6.582,9.718,7.136,14.859,4.011,4.576,4.277,3.424,4.576,5.152,3.147,6.283,1.706,6.283-.277s-.277,2.859-.277,4.288-4,6.283-4,6.283l-3.136,5.7,2.283,6.283,6.294,2.571,8.865,9.153,4,1.706V316.8l.5,1.994a119.914,119.914,0,0,0,59.924-28.211l.155-2.072,7.756-14.006-3.712-2.571Zm29.763-112.879-3.147-5.441-4-6.283-1.108-8.576,5.141.864.288-2.859-3.723-.288,3.147-1.429,3.435-1.995V134.5l-3.435-4.576-.731-6.15A120.447,120.447,0,0,0,213.886,89.536l6.582,4.665-4.078,5.141-5.43,1.108-.565,7.756-2.294.853-2.859,3.125.288,5.141,4.864.576-2.006,4.853h4.864l8.277-10.571.864-4.576,8-.565,1.995-3.435,8.288-.853.864-4.864,5.995-.277s4.288-2.294,5.153-2.294a34.925,34.925,0,0,1,4.853,1.429l4.288,3.435h6.006l5.141-3.147,6.571.576a7.08,7.08,0,0,0,3.147,1.108c1.429,0,5.718-2.006,5.718-2.006l8.277,5.141,3.435,2.582v4.277l4.288.576,1.429-2.571,3.712,1.717-.288,2.283L300.7,113l4.853,6.294,10.283,5.718,4.288,5.707,6.294.576,1.429-2.859,2.283-.576-7.435-5.707-4.565-.576,3.712-1.108-3.424-4.864,4.853-.277,6.283,3.424,1.429,6.859,3.147,3.712,2.571,8.288L343,142.191v9.43l6.571,4.288-.288,3.147-.853,3.712,1.706,5.141.576,2.571,4.853.864,2.294-4.864Zm3.712-28.81v1.64l-1.5,4.587.853,4,3.147,1.108v5.43l-3.424-1.429-.842,15.48-3.424,6.283,2.283,8.011,3.712,3.424v15.435l3.723,12,4,9.142,6.571,1.717,2.283-5.718.931-.731a121.2,121.2,0,0,0,.931-14.97A119.882,119.882,0,0,0,363,134.567Zm-66.019-1.784-18.837-8.288-8.288.288L267.9,130.2l-3.435-3.723-6.283,1.429-.576,9.441,5.141,3.712,3.723-5.43,4.211,4.255,8.865,7.756,1.717,8.288,7.424,9.43,12.011-1.995-.288-4.288-2.571-4.864-.565-11.424,2.859-4.864Zm15.435,6.283-4.288-1.108-3.712,3.147,1.995,8.288h3.723Zm26.594,5.43-9.718-5.141-2.006-3.424-2.283.853,1.995,5.718,1.717,7.424,4.288,1.717.853-1.108-2.571-4.288,7.435,2.859ZM255.6,247.657l-1.108,1.108,8.576,2.571,3.435,4,5.43.576,1.995-3.147-6.571-1.108Zm25.486,5.43-6.006,1.717.864,2.283h7.424L284.8,254.8l-2.571.277Z" transform="translate(-91.589 -29.671)" fill="#37b0ae" stroke="#263238" stroke-width="2"/>
      </g>
      <g id="freepik--Character--inject-73" transform="translate(185.887 161.258)">
        <path id="Path_6434" data-name="Path 6434" d="M332,323.257a30.728,30.728,0,0,0,1.108,9.23c1.319,4.211,2.626,8.166,3.945,9.751s3.435-1.053,1.585-4.222-.787-6.582.266-6.582,9.485,5.263,10.8,7.114,5.274,6.593,5.274,3.424-6.061-9.751-7.114-11.6-6.859-9.751-6.859-9.751Z" transform="translate(-175.764 -143.729)" fill="#fff" stroke="#263238" stroke-linejoin="round" stroke-width="1"/>
        <path id="Path_6435" data-name="Path 6435" d="M313.055,298.74l5.274,7.125-10.017,5.529-4.743-5.8Z" transform="translate(-153.083 -128.974)" fill="#37b0ae" stroke="#263238" stroke-linejoin="round" stroke-width="1"/>
        <path id="Path_6436" data-name="Path 6436" d="M286.714,447.873s-3.956,8.7-5.54,11.081-2.9,3.424-5.54,3.956-7.114,1.053-7.114,3.158a7.269,7.269,0,0,0,1.108,3.69s12.388,2.637,16.621,1.585,8.432-6.859,8.432-6.859l2.637,1.585,7.646-7.38a24.177,24.177,0,0,0-2.67-7.391c-2.371-4.742-3.69-8.166-3.69-8.166S292.776,447.873,286.714,447.873Z" transform="translate(-182.623 -130.49)" fill="#616161" stroke="#263238" stroke-linejoin="round" stroke-width="1"/>
        <path id="Path_6437" data-name="Path 6437" d="M303.251,452.47c-2.77,2.6-9.175,8.865-10.926,10.4-2.216,1.961-6.759,5.884-10.239,5.884-2.5,0-9.5-1.008-13.3-1.585a6.859,6.859,0,0,0,.709,1.562s12.388,2.637,16.621,1.584,8.432-6.859,8.432-6.859l2.637,1.585,7.646-7.38A20.123,20.123,0,0,0,303.251,452.47Z" transform="translate(-182.593 -129.481)" fill="none" stroke="#263238" stroke-linejoin="round" stroke-width="1"/>
        <path id="Path_6438" data-name="Path 6438" d="M266.39,419.528s5.008,10.538,9.973,16.865S286.9,456.958,286.9,456.958s4.488,1.585,7.646-.8a12.942,12.942,0,0,0,4.222-6.316s-6.327-19.513-8.7-27.945-8.178-26.893-10.815-31.369A102.287,102.287,0,0,0,272.717,381s-2.9,17.4-4.222,23.979S266.39,419.528,266.39,419.528Z" transform="translate(-182.853 -137.204)" fill="#263238" stroke="#263238" stroke-linejoin="round" stroke-width="1"/>
        <path id="Path_6439" data-name="Path 6439" d="M245.4,306.906l.266,16.865s-4.432,31.115-.787,46.927,9.485,33.242,9.485,33.242-2.892,29-3.956,36.112-5.54,20.566-5.54,20.566,7.646,3.956,8.964,3.956h2.637s7.9-21.352,9.485-24.522,7.114-9.219,8.964-22.405,2.382-26.9,2.382-26.9,13.175-16.876,16.344-22.161,8.166-16.089,8.166-16.089,5.806-15.025,5.008-29.519-5.263-21.873-5.263-21.873-25.84,6.061-37.962,6.061S245.4,306.906,245.4,306.906Z" transform="translate(-185.333 -145.839)" fill="#263238" stroke="#263238" stroke-linejoin="round" stroke-width="1"/>
        <path id="Path_6440" data-name="Path 6440" d="M256.549,222.869s5.119,5.119,4.344,6.9-14.05,2.56-16.865,5.884-14.826,45.5-14.826,45.5-14.316-4.1-15.591-5.119-2.814-.255-3.579,2.814-8.432,9.973-7.413,11.757,15.081,8.687,21.984,10.482a87.228,87.228,0,0,0,12.8,2.294l-1.019,13.042s13.031,7.413,38.339,4.089,35.813-8.687,35.813-8.687L307.475,285.5S324.1,316.678,326.9,322.063s6.382,13.3,9.452,14.316,14.061-6.139,14.316-9.2-9.2-17.9-16.621-30.671S316.407,247.69,314.877,240s-5.629-14.061-9.973-15.081-16.1-1.031-21.219-2.05-12.266-9.452-15.591-20.189Z" transform="translate(-189.754 -156.475)" fill="#37b0ae" stroke="#263238" stroke-width="2"/>
        <path id="Path_6441" data-name="Path 6441" d="M243,242.821c1.3-2.748,2.294-4.621,2.294-4.621" transform="translate(-185.381 -152.636)" fill="none" stroke="#263238" stroke-width="2"/>
        <path id="Path_6442" data-name="Path 6442" d="M234,298.659s3.069-32.965,4.344-40.888a55.259,55.259,0,0,1,3.668-11.391" transform="translate(-186.353 -151.752)" fill="none" stroke="#263238" stroke-width="2"/>
        <path id="Path_6443" data-name="Path 6443" d="M289.669,250.669c-.377-1.817-.731-3.6-1.019-5.319" transform="translate(-180.447 -151.864)" fill="none" stroke="#263238" stroke-width="2"/>
        <path id="Path_6444" data-name="Path 6444" d="M297.9,279.885s-4.244-12.577-7.313-25.275" transform="translate(-180.238 -150.863)" fill="none" stroke="#263238" stroke-width="2"/>
        <path id="Path_6445" data-name="Path 6445" d="M249,231.968c1.23,2.637,5.175,7.967,17.131,7.756,14.106-.233,20.311-9.973,22.594-15.9a90.658,90.658,0,0,1-10.072-.975c-5.108-1.019-12.266-9.452-15.59-20.189l-11.535,20.211s5.119,5.119,4.344,6.9C255.515,230.605,252.435,231.226,249,231.968Z" transform="translate(-184.732 -156.477)" fill="#fff" stroke="#263238" stroke-width="2"/>
        <path id="Path_6446" data-name="Path 6446" d="M260.843,209.25l-3.479,2.216-6.083,10.66a28.265,28.265,0,0,1,3.834,4.8C260.843,220.109,260.843,209.25,260.843,209.25Z" transform="translate(-184.486 -155.765)" fill="#263238" stroke="#263238" stroke-linejoin="round" stroke-width="1"/>
        <path id="Path_6447" data-name="Path 6447" d="M224.53,201.517s4.853,8.432,6.128,12.266a20.255,20.255,0,0,0,9.973,10.737c4.6,2.039,6.9,3.834,10.992,4.089,5.862.366,10.216-7.923,12.521-14.316s2.3-7.413,2.3-7.413,3.568-5.363,3.568-10.992-6.383-12.011-13.541-15.336-12.011-8.178-19.424-1.529S224.53,201.517,224.53,201.517Z" transform="translate(-187.377 -159.39)" fill="#fff" stroke="#263238" stroke-width="2"/>
        <path id="Path_6448" data-name="Path 6448" d="M236.06,206.37a17.731,17.731,0,0,1,1.019,4.6c0,1.8,2.3,2.56,4.344-1.274" transform="translate(-186.13 -156.076)" fill="none" stroke="#263238" stroke-width="1"/>
        <path id="Path_6449" data-name="Path 6449" d="M241.36,214.648s6.394,1.019,7.668-6.648" transform="translate(-185.558 -155.9)" fill="none" stroke="#263238" stroke-width="1"/>
        <path id="Path_6450" data-name="Path 6450" d="M242.792,198.5c.6,1.019.621,2.116,0,2.46s-1.529-.222-2.127-1.241-.609-2.128,0-2.46S242.193,197.481,242.792,198.5Z" transform="translate(-185.682 -157.071)" fill="#263238"/>
        <path id="Path_6451" data-name="Path 6451" d="M233.481,203.131c.6,1.019.621,2.127,0,2.46s-1.529-.222-2.116-1.241-.621-2.127,0-2.46S232.893,202.089,233.481,203.131Z" transform="translate(-186.687 -156.571)" fill="#263238"/>
        <path id="Path_6452" data-name="Path 6452" d="M235.93,195.634s1.108-4.011,8.3-3.479" transform="translate(-186.145 -157.618)" fill="none" stroke="#263238" stroke-width="1"/>
        <path id="Path_6453" data-name="Path 6453" d="M231.457,198.92s-4.011,0-3.745,3.213" transform="translate(-187.034 -156.881)" fill="none" stroke="#263238" stroke-width="1"/>
        <path id="Path_6454" data-name="Path 6454" d="M244.243,184.693s-3.324,3.834-7.158,7.668-10.216,9.463-10.216,16.355.255,7.668.255,7.668-10.992-5.618-14.061-13.3,3.834-25.308,12.266-33.242,18.4-9.452,29.4-8.687,21.984,11.757,24.8,22.749-2.814,23-4.61,25.042-7.413,2.3-7.413,2.3a25.874,25.874,0,0,0,.776-12.011c-1.285-5.884-4.864-4.6-5.374-2.05s-.765,3.579-.765,3.579-5.108-3.579-10.482-7.413a22.926,22.926,0,0,1-7.413-8.665Z" transform="translate(-188.696 -160.981)" fill="#263238" stroke="#263238" stroke-linejoin="round" stroke-width="1"/>
        <path id="Path_6455" data-name="Path 6455" d="M174.07,261.128l6.892-10.227,3.324,3.324Z" transform="translate(-167.078 -134.144)" fill="#37b0ae" stroke="#263238" stroke-linejoin="round" stroke-width="1"/>
        <path id="Path_6456" data-name="Path 6456" d="M199.118,249.395l-16.056.066-15.3-29.475,16.056-.066Z" transform="translate(-167.76 -137.492)" fill="#263238" stroke="#263238" stroke-linejoin="round" stroke-width="1"/>
        <path id="Path_6457" data-name="Path 6457" d="M193.39,248.373s4.089,3.834,4.344,5.629,2.294,8.687,3.324,12.011,4.853,6.9,4.853,6.9l3.324-3.324-1.285-5.629a49.019,49.019,0,0,1,3.834-3.069c1.54-1.019,3.324-3.834,2.3-3.834a13.741,13.741,0,0,0-2.3.266s2.3-3.579.776-3.834a20.559,20.559,0,0,0-3.069-.266s2.549-3.058.51-3.324-9.208,3.579-9.208,3.579l-3.058-4.61A5.54,5.54,0,0,0,193.39,248.373Z" transform="translate(-190.742 -151.562)" fill="#fff" stroke="#263238" stroke-linejoin="round" stroke-width="1"/>
        <path id="Path_6458" data-name="Path 6458" d="M194.2,247.445a1.551,1.551,0,0,0,.7,2.693,2.892,2.892,0,0,0,2.8-.5c1.274-1.529,6.382-5.618,6.382-7.668s-2.294.255-3.324.776A52.227,52.227,0,0,0,194.2,247.445Z" transform="translate(-190.712 -152.319)" fill="#fff" stroke="#263238" stroke-linejoin="round" stroke-width="1"/>
        <path id="Path_6459" data-name="Path 6459" d="M208.793,252.73s-7.668,3.834-8.953,5.374" transform="translate(-190.045 -151.066)" fill="none" stroke="#263238" stroke-linejoin="round" stroke-width="1"/>
        <path id="Path_6460" data-name="Path 6460" d="M210.8,256.43s-6.128,2.8-8.178,5.108" transform="translate(-189.744 -150.666)" fill="none" stroke="#263238" stroke-linejoin="round" stroke-width="1"/>
        <path id="Path_6461" data-name="Path 6461" d="M211.87,268.949,208.3,265.88,197.31,276.617l7.413,5.629S211.615,275.6,211.87,268.949Z" transform="translate(-190.318 -149.645)" fill="#37b0ae" stroke="#263238" stroke-linejoin="round" stroke-width="1"/>
        <path id="Path_6462" data-name="Path 6462" d="M276.4,322.28s-11.867,27.934-14.5,39.58-7.646,33.741-7.646,35.059" transform="translate(-184.165 -143.55)" fill="none" stroke="#757575" stroke-linejoin="round" stroke-width="2"/>
        <line id="Line_1" data-name="Line 1" x2="6.859" y2="7.901" transform="translate(75.094 186.642)" fill="none" stroke="#757575" stroke-linejoin="round" stroke-width="2"/>
        <path id="Path_6463" data-name="Path 6463" d="M247.465,444.32s-1.585,3.424-9.23,5-14.759-1.307-16.078-1.053-2.637,2.637-2.637,4.754,9.23,7.9,12.92,9.751a31.734,31.734,0,0,0,9.23,2.371h1.307l-.255,2.637a49.782,49.782,0,0,0,6.582,2.105,20.778,20.778,0,0,0,6.072,0A49.137,49.137,0,0,0,256.7,459.6a31.558,31.558,0,0,1,2.371-10.538Z" transform="translate(-187.918 -130.361)" fill="#616161" stroke="#263238" stroke-linejoin="round" stroke-width="1"/>
        <path id="Path_6464" data-name="Path 6464" d="M256.175,465c-5.2-.676-14.782-2.216-20.6-4.432-6.161-2.327-13.064-7.069-15.989-9.175a5.26,5.26,0,0,0-.066.831c0,2.105,9.23,7.9,12.92,9.751a31.734,31.734,0,0,0,9.23,2.371h1.308l-.255,2.637a49.765,49.765,0,0,0,6.582,2.105,20.775,20.775,0,0,0,6.072,0S255.8,467.4,256.175,465Z" transform="translate(-187.918 -129.597)" fill="none" stroke="#263238" stroke-linejoin="round" stroke-width="1"/>
      </g>
    </g>
  </g>
</svg>
